<svg width="400" height="400" viewBox="0 0 400 400" fill="none" xmlns="http://www.w3.org/2000/svg">
    <g clip-path="url(#clip0_28_36)">
        <circle cx="200" cy="200" r="200" fill="#161715" />
        <path
            d="M272.162 157.675C255.721 133.297 227.374 111.187 201.579 105.234C238.996 94.179 266.209 96.1632 287.185 104.951C287.185 116.573 277.831 146.053 272.162 157.675ZM201.579 105.234C172.382 113.171 146.02 129.045 134.398 148.037C117.39 126.494 151.406 90.4939 201.579 105.234ZM211.217 178.084C292.004 193.108 303.91 213.234 280.666 257.171C269.044 244.132 239.28 233.36 203.847 226.273C123.059 210.116 111.154 191.974 134.398 148.037C143.752 159.092 166.996 169.864 211.217 178.084ZM127.028 238.746C146.303 267.659 177.201 291.47 213.201 299.974C176.067 311.029 138.083 306.777 113.422 293.738C112.855 280.415 119.091 248.667 127.028 238.746ZM213.201 299.974C244.949 290.053 269.327 276.163 280.666 257.171C299.374 278.147 271.595 313.581 213.201 299.974Z"
            fill="url(#paint0_linear_28_36)" />
    </g>
    <defs>
        <linearGradient id="paint0_linear_28_36" x1="199.925" y1="96.5661" x2="198.299" y2="303.941"
            gradientUnits="userSpaceOnUse">
            <stop stop-color="#B1FA63" />
            <stop offset="0.5625" stop-color="#FF8040" />
            <stop offset="1" stop-color="#9881FF" />
        </linearGradient>
        <clipPath id="clip0_28_36">
            <rect width="400" height="400" fill="white" />
        </clipPath>
    </defs>
</svg>
