<svg width="17" height="18" viewBox="0 0 17 18" fill="none" xmlns="http://www.w3.org/2000/svg">
<path d="M7.28809 2.79604C7.60606 1.53769 9.39394 1.53769 9.71191 2.79604L10.0396 4.09274C10.2304 4.84803 11.0582 5.24664 11.7677 4.92494L12.9858 4.37264C14.1678 3.83667 15.2825 5.23449 14.497 6.26766L13.6875 7.33231C13.216 7.95244 13.4204 8.84812 14.1143 9.20226L15.3056 9.81025C16.4616 10.4003 16.0638 12.1433 14.7662 12.1733L13.4291 12.2042C12.6503 12.2222 12.0775 12.9405 12.2332 13.7038L12.5006 15.0142C12.7601 16.2859 11.1493 17.0617 10.3168 16.0659L9.45902 15.0398C8.95936 14.4421 8.04064 14.4421 7.54098 15.0398L6.68315 16.0659C5.85069 17.0617 4.23987 16.2859 4.49937 15.0142L4.76677 13.7038C4.92253 12.9405 4.34972 12.2222 3.57089 12.2042L2.2338 12.1733C0.936241 12.1433 0.538402 10.4003 1.69445 9.81025L2.88572 9.20226C3.57961 8.84812 3.78404 7.95244 3.31253 7.33231L2.50302 6.26766C1.71746 5.23449 2.83217 3.83667 4.01425 4.37264L5.23234 4.92494C5.94184 5.24664 6.76958 4.84803 6.96043 4.09274L7.28809 2.79604Z" stroke="#A9FA59" stroke-width="2"/>
</svg>
